Dogma 1999 BluRay 1080p ac3-LoNeWoLf

Encoded by Tequila-Bob a.k.a. bobnjeff a.k.a.LoNeWoLf

Source - NTSC BluRay Disc.

 
http://www.imdb.com/title/tt0120655/

Genres:Genres:Adventure , Comedy ,Fantasy 

Rated R for strong language including sex-related dialogue, violence, crude humor and some drug content. 


 More at IMDbPro » Dogma (1999) 
  130 min  -  Adventure | Comedy | Fantasy   -  12 November 1999 (USA) 
  7.3/10 X  Users: 7.3/10 (102,131 votes) 980 reviews | Critics: 194 reviews 
  abortion clinic worker with a special heritage is called upon to save the existence of humanity from being negated by two renegade angels trying to exploit   a loophole and re-enter Heaven. 


Director: Kevin Smith
Writer: Kevin Smith
Stars:Ben Affleck, Matt Damon,Linda Fiorentino  
 
Storyline
An abortion clinic worker with a special heritage is enlisted to prevent two angels from reentering Heaven and thus undoing the fabric of the universe. Along the way, she is aided by two prophets, Jay and Silent Bob. With the help of Rufus, the 13th Apostle, they must stop those who stand in their way and prevent the angels from entering Heaven.


Cast
Cast overview, first billed only: 
  Bud Cort  ...  John Doe Jersey  
  Barret Hackney  ...  Stygian Triplet (as Barrett Hackney)  
  Jared Pfennigwerth  ...  Stygian Triplet  
  Kitao Sakurai  ...  Stygian Triplet  
  George Carlin  ...  Cardinal Glick  
  Brian O\'Halloran  ...  Reporter (as Brian Christopher O\'Halloran)  
  Betty Aberlin  ...  Nun  
  Matt Damon  ...  Loki  
  Ben Affleck  ...  Bartleby  
  Dan Etheridge  ...  Priest @ St. Stephen\'s  
  Linda Fiorentino  ...  Bethany  
  Derek Milosavljevic  ...  Kissing Couple  
  Lesley Braden  ...  Kissing Couple  
  Marie Elena O\'Brien  ...  Clinic Girl (scenes deleted) (as MarieElena O\'Brien)  
  Janeane Garofalo  ...  Liz 

[img]http://torrent-stats.info/da0c/ea73f524.png[/img]

See the full size 1920x800 PNG files at the link below

 
http://s1015.photobucket.com/albums/af279/tequila-bob/Dogma1999/



Format : Matroska 
File size : 8.02 GiB 
Duration : 2h 8mn 
Overall bit rate : 8 955 Kbps 
Encoded date : UTC 2010-12-11 16:17:26 
Writing application : mkvmerge v4.4.0 (\'Die Wiederkehr\') built on Oct 31 2010 21:52:48 
Writing library : libebml v1.0.0 + libmatroska v1.0.0 

Video 
ID : 1 
Format : AVC 
Format/Info : Advanced Video Codec 
Format profile : High@L4.1 
Format settings, CABAC : Yes 
Format settings, ReFrames : 5 frames 
Muxing mode : Container profile=Unknown@4.1 
Codec ID : V_MPEG4/ISO/AVC 
Duration : 2h 8mn 
Bit rate : 8 239 Kbps 
Width : 1 920 pixels 
Height : 800 pixels 
Display aspect ratio : 2.40:1 
Frame rate : 23.976 fps 
Color space : YUV 
Chroma subsampling : 4:2:0 
Bit depth : 8 bits 
Scan type : Progressive 
Bits/(Pixel*Frame) : 0.224 
Stream size : 7.29 GiB (91%) 
Writing library : x264 core 98 r1649 c54c47d 
Encoding settings : cabac=1 / ref=6 / deblock=1:-2:-1 / analyse=0x3:0x133 / me=umh / subme=9 / psy=1 / psy_rd=1.00:0.15 / mixed_ref=1 / me_range=24 / chroma_me=1 / trellis=1 / 8x8dct=1 / cqm=0 / deadzone=21,11 / fast_pskip=1 / chroma_qp_offset=-3 / threads=6 / sliced_threads=0 / nr=0 / decimate=1 / interlaced=0 / constrained_intra=0 / bframes=4 / b_pyramid=1 / b_adapt=1 / b_bias=0 / direct=1 / weightb=1 / weightp=2 / keyint=250 / keyint_min=25 / scenecut=40 / intra_refresh=0 / rc_lookahead=50 / rc=2pass / mbtree=1 / bitrate=8239 / ratetol=1.0 / qcomp=0.60 / qpmin=10 / qpmax=51 / qpstep=4 / cplxblur=20.0 / qblur=0.5 / ip_ratio=1.40 / aq=1:1.00 
Language : English 

Audio 
ID : 2 
Format : AC-3 
Format/Info : Audio Coding 3 
Mode extension : CM (complete main) 
Codec ID : A_AC3 
Duration : 2h 8mn 
Bit rate mode : Constant 
Bit rate : 640 Kbps 
Channel(s) : 6 channels 
Channel positions : Front: L C R, Side: L R, LFE 
Sampling rate : 48.0 KHz 
Bit depth : 16 bits 
Stream size : 587 MiB (7%) 
Title : 3/2+1 
Language : English 

Text #1 
Language : English 
Text #2 
Language : English 
Text #3  
Language : French 
Text #4 
Language : French 
Text #5 
Language : Spanish 

Menu & 15 Chapters




See the full size 1920x800 PNG files at the link below

 
http://s1015.photobucket.com/albums/af279/tequila-bob/Dogma1999/

